# This file uses meters as units for non-parametric coordinates.

mtllib rock.mtl
g default
v -28.612382 -50.125950 171.926292
v 38.592651 -50.125950 175.972056
v -23.317565 17.665720 176.429130
v 39.665562 6.654506 176.429130
v -23.317565 17.665718 81.863747
v 39.665562 17.665720 81.863747
v -30.759969 -50.125950 85.976062
v 36.045527 -50.125950 85.976059
v -34.339608 23.037390 113.355310
v 51.956243 -2.854229 69.204686
v 7.422925 -50.125950 75.958154
v -35.458272 -14.710029 69.204686
v 49.636591 -50.125950 114.598661
v -44.832472 -50.125950 114.598661
v 7.422925 -50.125950 178.965956
v 45.890289 -14.710029 186.975577
v 12.426513 -0.302788 187.451170
v -40.282389 -14.710029 185.539637
v 44.066536 23.213041 107.690217
v 8.173999 16.751212 70.841701
v 8.248985 -19.990598 197.061765
v 8.248985 19.654144 112.911944
v 8.248985 -17.205060 54.635604
v 8.248985 -50.125950 112.911944
v 61.368692 4.499879 112.911944
v -61.665354 -14.710029 112.911944
v -28.998107 28.642590 143.922142
v 8.248985 19.931078 149.828473
v 45.346107 6.654585 143.922142
v 59.464858 -14.710029 149.828476
v 41.208556 -50.125950 142.380779
v 8.248985 -50.125950 149.828473
v -47.390297 -50.125950 142.380779
v -50.216636 -14.710029 149.828473
v -12.274446 -50.125950 177.975755
v -25.846673 -50.125950 147.653107
v -25.846758 -50.125950 112.911944
v -3.915488 -50.125950 79.926596
v -9.064990 -14.710029 60.406922
v -4.300911 24.508422 75.207919
v -9.064990 34.140310 112.911944
v 0.554795 34.333242 147.653107
v 1.668982 11.016501 183.084960
v -16.919363 -14.710029 197.885945
v -37.740233 -35.414108 181.588272
v -15.892002 -35.414108 190.118644
v 8.248985 -37.607662 190.431058
v 44.824609 -35.414108 183.364451
v 51.865031 -35.414108 146.618170
v 59.907886 -26.152066 112.911944
v 45.331865 -35.414108 75.829065
v 8.248985 -37.607662 63.152662
v -6.440841 -35.414108 68.174222
v -35.155672 -35.414108 75.829065
v -55.347642 -35.414108 112.911944
v -52.283194 -35.414108 146.618170
vt 0.526447 0.316820
vt 0.445558 0.304278
vt 0.481744 0.172590
vt 0.601499 0.172590
vt 0.445558 0.447843
vt 0.526447 0.461951
vt 0.388080 0.287722
vt 0.388080 0.179180
vt 0.445558 0.027709
vt 0.572767 0.001828
vt 0.609917 0.293744
vt 0.674610 0.152189
vt 0.388080 0.418961
vt 0.609917 0.420747
vt 0.388080 0.067353
vt 0.652937 0.051286
vt 0.747743 0.890038
vt 0.747743 0.745157
vt 0.828632 0.745157
vt 0.828632 0.915919
vt 0.690264 0.850394
vt 0.690264 0.738567
vt 0.747743 0.613469
vt 0.828632 0.600927
vt 0.976109 0.743425
vt 0.955122 0.866460
vt 0.690264 0.630024
vt 0.747743 0.476843
vt 0.828632 0.461405
vt 0.998008 0.624002
vt 0.690264 0.514592
vt 0.955122 0.497000
vt 0.848762 0.148818
vt 0.993698 0.171893
vt 0.988699 0.313449
vt 0.848762 0.293048
vt 0.865084 0.001828
vt 0.971505 0.044891
vt 0.971505 0.414351
vt 0.848469 0.457414
vt 0.781118 0.293048
vt 0.818702 0.157317
vt 0.823055 0.018887
vt 0.799731 0.440355
vt 0.703240 0.171893
vt 0.682371 0.291316
vt 0.725434 0.044891
vt 0.725434 0.414351
vt 0.086161 0.196234
vt 0.171845 0.067363
vt 0.216144 0.051858
vt 0.219371 0.196234
vt 0.066966 0.090998
vt 0.011985 0.202824
vt 0.161979 0.021447
vt 0.219371 0.001828
vt 0.327970 0.090998
vt 0.381070 0.202824
vt 0.086162 0.331966
vt 0.219371 0.340465
vt 0.049792 0.051354
vt 0.001992 0.311367
vt 0.364252 0.051354
vt 0.348142 0.311367
vt 0.139187 0.450435
vt 0.216144 0.454303
vt 0.075356 0.426800
vt 0.337922 0.442606
vt 0.219371 0.499097
vt 0.125054 0.497876
vt 0.039694 0.464548
vt 0.362270 0.471488
vt 0.308820 0.748481
vt 0.227931 0.744468
vt 0.219361 0.650150
vt 0.288190 0.650150
vt 0.227931 0.829827
vt 0.308820 0.839759
vt 0.227931 0.507252
vt 0.308820 0.503088
vt 0.409332 0.675858
vt 0.365108 0.633829
vt 0.435310 0.773479
vt 0.392290 0.527408
vt 0.594670 0.704349
vt 0.441446 0.685736
vt 0.471752 0.636997
vt 0.604417 0.636704
vt 0.468180 0.760033
vt 0.594670 0.807466
vt 0.468180 0.513962
vt 0.548350 0.465943
vt 0.684129 0.636704
vt 0.675559 0.694097
vt 0.675559 0.806283
vt 0.675559 0.491824
vn -0.205370 0.196302 0.958795
vn -0.211318 -0.461347 0.861686
vn 0.102186 -0.445533 0.889414
vn 0.147988 0.039276 0.988209
vn 0.665056 -0.416668 0.619748
vn 0.686803 0.138569 0.713512
vn 0.443025 0.783113 0.436420
vn 0.241916 0.665002 0.706575
vn 0.147453 0.717083 0.681212
vn 0.059429 0.988097 -0.141891
vn 0.231699 0.952566 0.197317
vn 0.404539 0.890068 0.210064
vn 0.306938 0.951620 0.014446
vn 0.474378 0.835030 0.278729
vn 0.362913 0.931605 0.020168
vn 0.302216 0.821301 -0.483870
vn 0.126560 0.740962 -0.659513
vn -0.012325 0.817611 -0.575638
vn -0.304501 0.126550 -0.944068
vn 0.153189 0.050025 -0.986930
vn 0.697136 0.154429 -0.700109
vn 0.708187 -0.378647 -0.595901
vn 0.175833 -0.460195 -0.870232
vn -0.270853 -0.472173 -0.838863
vn 0.000000 -1.000000 -0.000000
vn -0.081594 -0.958301 -0.273865
vn 0.043911 -0.949513 -0.310640
vn 0.000000 -1.000000 -0.000000
vn 0.332285 -0.904127 -0.268592
vn 0.472688 -0.880271 -0.041103
vn 0.335624 -0.940377 0.055210
vn 0.000000 -1.000000 -0.000000
vn 0.000000 -1.000000 -0.000000
vn 0.967836 0.128173 0.216485
vn 0.924364 -0.349639 0.152656
vn 0.956354 -0.269102 -0.113891
vn 0.960297 0.277840 -0.025179
vn -0.631064 -0.401658 -0.663648
vn -0.925040 -0.310759 -0.218471
vn -0.941756 0.296838 -0.158059
vn -0.694288 0.213570 -0.687278
vn -0.924396 -0.280231 0.258770
vn -0.916204 0.318178 0.243584
vn -0.623056 0.749595 0.223402
vn -0.722139 0.679286 -0.130715
vn -0.591100 0.609552 -0.528249
vn 0.345270 -0.890500 0.296308
vn 0.023253 -0.947887 0.317756
vn -0.069857 -0.944772 0.320196
vn -0.733002 -0.346901 0.585122
vn -0.764387 0.286576 0.577570
vn -0.514949 0.684930 0.515460
vn -0.538142 -0.832751 0.130111
vn -0.386612 -0.850541 0.356525
vn -0.491282 -0.860387 -0.135558
vn -0.359071 -0.852888 -0.379012
s 1
g pCube1
usemtl initialShadingGroup
f 44/73/1 46/74/2 47/75/3 21/76/4
f 47/75/3 48/79/5 16/80/6 21/76/4
f 21/76/4 16/80/6 4/84/7 17/82/8
f 43/81/9 44/73/1 21/76/4 17/82/8
f 41/41/10 42/42/11 28/33/12 22/36/13
f 28/33/12 29/34/14 19/35/15 22/36/13
f 22/36/13 19/35/15 6/39/16 20/40/17
f 40/44/18 41/41/10 22/36/13 20/40/17
f 39/85/19 40/86/18 20/87/17 23/88/20
f 20/87/17 6/91/16 10/92/21 23/88/20
f 23/88/20 10/92/21 51/96/22 52/93/23
f 52/93/23 53/94/24 39/85/19 23/88/20
f 37/49/25 38/50/26 11/51/27 24/52/28
f 11/51/27 8/57/29 13/58/30 24/52/28
f 24/52/28 13/58/30 31/64/31 32/60/32
f 36/59/33 37/49/25 24/52/28 32/60/32
f 30/1/34 49/2/35 50/3/36 25/4/37
f 50/3/36 51/9/22 10/10/21 25/4/37
f 25/4/37 10/10/21 6/16/16 19/12/15
f 29/11/14 30/1/34 25/4/37 19/12/15
f 54/17/38 55/18/39 26/19/40 12/20/41
f 55/18/39 56/23/42 34/24/43 26/19/40
f 26/19/40 34/24/43 27/30/44 9/25/45
f 12/20/41 26/19/40 9/25/45 5/26/46
f 42/42/11 43/43/9 17/37/8 28/33/12
f 17/37/8 4/38/7 29/34/14 28/33/12
f 16/6/6 30/1/34 29/11/14 4/14/7
f 48/5/5 49/2/35 30/1/34 16/6/6
f 32/60/32 31/64/31 2/68/47 15/66/48
f 35/65/49 36/59/33 32/60/32 15/66/48
f 34/24/43 56/23/42 45/28/50 18/29/51
f 27/30/44 34/24/43 18/29/51 3/32/52
f 33/62/53 36/59/33 35/65/49 1/67/54
f 14/54/55 37/49/25 36/59/33 33/62/53
f 7/53/56 38/50/26 37/49/25 14/54/55
f 12/90/41 39/85/19 53/94/24 54/95/38
f 5/89/46 40/86/18 39/85/19 12/90/41
f 9/46/45 41/41/10 40/44/18 5/48/46
f 27/45/44 42/42/11 41/41/10 9/46/45
f 3/47/52 43/43/9 42/42/11 27/45/44
f 18/78/51 44/73/1 43/81/9 3/83/52
f 45/77/50 46/74/2 44/73/1 18/78/51
f 1/67/54 35/65/49 46/70/2 45/71/50
f 47/69/3 46/70/2 35/65/49 15/66/48
f 15/66/48 2/68/47 48/72/5 47/69/3
f 2/13/47 31/7/31 49/2/35 48/5/5
f 50/3/36 49/2/35 31/7/31 13/8/30
f 13/8/30 8/15/29 51/9/22 50/3/36
f 52/56/23 51/63/22 8/57/29 11/51/27
f 38/50/26 53/55/24 52/56/23 11/51/27
f 54/61/38 53/55/24 38/50/26 7/53/56
f 7/21/56 14/22/55 55/18/39 54/17/38
f 14/22/55 33/27/53 56/23/42 55/18/39
f 45/28/50 56/23/42 33/27/53 1/31/54
